<svg viewBox="0 0 330 200" xmlns="http://www.w3.org/2000/svg"><g><g><g><g><g><line x1="50" y1="178" x2="45" y2="178" style="visibility: inherit;" fill="rgb(0, 0, 0)" stroke="rgb(204, 204, 204)" stroke-width="1px"></line><line x1="50" y1="155.75" x2="45" y2="155.75" style="visibility: inherit;" fill="rgb(0, 0, 0)" stroke="rgb(204, 204, 204)" stroke-width="1px"></line><line x1="50" y1="133.5" x2="45" y2="133.5" style="visibility: inherit;" fill="rgb(0, 0, 0)" stroke="rgb(204, 204, 204)" stroke-width="1px"></line><line x1="50" y1="111.24999999999999" x2="45" y2="111.24999999999999" style="visibility: inherit;" fill="rgb(0, 0, 0)" stroke="rgb(204, 204, 204)" stroke-width="1px"></line><line x1="50" y1="88.99999999999999" x2="45" y2="88.99999999999999" style="visibility: inherit;" fill="rgb(0, 0, 0)" stroke="rgb(204, 204, 204)" stroke-width="1px"></line><line x1="50" y1="66.75" x2="45" y2="66.75" style="visibility: inherit;" fill="rgb(0, 0, 0)" stroke="rgb(204, 204, 204)" stroke-width="1px"></line><line x1="50" y1="44.5" x2="45" y2="44.5" style="visibility: inherit;" fill="rgb(0, 0, 0)" stroke="rgb(204, 204, 204)" stroke-width="1px"></line><line x1="50" y1="22.25" x2="45" y2="22.25" style="visibility: inherit;" fill="rgb(0, 0, 0)" stroke="rgb(204, 204, 204)" stroke-width="1px"></line><line x1="50" y1="0" x2="45" y2="0" style="visibility: inherit;" fill="rgb(0, 0, 0)" stroke="rgb(204, 204, 204)" stroke-width="1px"></line></g><g transform="translate(40, 0)"><text x="0" y="178" dx="0em" dy="0.3em" style="text-anchor: end; visibility: hidden; font-family: &quot;Helvetica Neue&quot;, sans-serif; font-size: 12px; font-weight: 200;" fill="rgb(50, 49, 63)" stroke="none" stroke-width="1px">-0.1</text><text x="0" y="155.75" dx="0em" dy="0.3em" style="text-anchor: end; visibility: inherit; font-family: &quot;Helvetica Neue&quot;, sans-serif; font-size: 12px; font-weight: 200;" fill="rgb(50, 49, 63)" stroke="none" stroke-width="1px">0</text><text x="0" y="133.5" dx="0em" dy="0.3em" style="text-anchor: end; visibility: hidden; font-family: &quot;Helvetica Neue&quot;, sans-serif; font-size: 12px; font-weight: 200;" fill="rgb(50, 49, 63)" stroke="none" stroke-width="1px">0.1</text><text x="0" y="111.24999999999999" dx="0em" dy="0.3em" style="text-anchor: end; visibility: inherit; font-family: &quot;Helvetica Neue&quot;, sans-serif; font-size: 12px; font-weight: 200;" fill="rgb(50, 49, 63)" stroke="none" stroke-width="1px">0.2</text><text x="0" y="88.99999999999999" dx="0em" dy="0.3em" style="text-anchor: end; visibility: hidden; font-family: &quot;Helvetica Neue&quot;, sans-serif; font-size: 12px; font-weight: 200;" fill="rgb(50, 49, 63)" stroke="none" stroke-width="1px">0.3</text><text x="0" y="66.75" dx="0em" dy="0.3em" style="text-anchor: end; visibility: inherit; font-family: &quot;Helvetica Neue&quot;, sans-serif; font-size: 12px; font-weight: 200;" fill="rgb(50, 49, 63)" stroke="none" stroke-width="1px">0.4</text><text x="0" y="44.5" dx="0em" dy="0.3em" style="text-anchor: end; visibility: hidden; font-family: &quot;Helvetica Neue&quot;, sans-serif; font-size: 12px; font-weight: 200;" fill="rgb(50, 49, 63)" stroke="none" stroke-width="1px">0.5</text><text x="0" y="22.25" dx="0em" dy="0.3em" style="text-anchor: end; visibility: inherit; font-family: &quot;Helvetica Neue&quot;, sans-serif; font-size: 12px; font-weight: 200;" fill="rgb(50, 49, 63)" stroke="none" stroke-width="1px">0.6</text><text x="0" y="0" dx="0em" dy="0.3em" style="text-anchor: end; visibility: hidden; font-family: &quot;Helvetica Neue&quot;, sans-serif; font-size: 12px; font-weight: 200;" fill="rgb(50, 49, 63)" stroke="none" stroke-width="1px">0.7</text></g><line x1="50" y1="0" x2="50" y2="178" fill="rgb(0, 0, 0)" stroke="rgb(204, 204, 204)" stroke-width="1px"></line></g></g><g transform="translate(50, 0)" clip-path="url(#clip_0)"><clipPath id="clip_0"><rect width="280" height="178"></rect></clipPath><g><g><g><line x1="0" y1="0" x2="0" y2="178" fill="rgb(0, 0, 0)" stroke="rgb(60, 60, 60)" stroke-width="1px" opacity="0.25"></line><line x1="35" y1="0" x2="35" y2="178" fill="rgb(0, 0, 0)" stroke="rgb(60, 60, 60)" stroke-width="1px" opacity="0.25"></line><line x1="70" y1="0" x2="70" y2="178" fill="rgb(0, 0, 0)" stroke="rgb(60, 60, 60)" stroke-width="1px" opacity="0.25"></line><line x1="105" y1="0" x2="105" y2="178" fill="rgb(0, 0, 0)" stroke="rgb(60, 60, 60)" stroke-width="1px" opacity="0.25"></line><line x1="140" y1="0" x2="140" y2="178" fill="rgb(0, 0, 0)" stroke="rgb(60, 60, 60)" stroke-width="1px" opacity="0.25"></line><line x1="175" y1="0" x2="175" y2="178" fill="rgb(0, 0, 0)" stroke="rgb(60, 60, 60)" stroke-width="1px" opacity="0.25"></line><line x1="210" y1="0" x2="210" y2="178" fill="rgb(0, 0, 0)" stroke="rgb(60, 60, 60)" stroke-width="1px" opacity="0.25"></line><line x1="245" y1="0" x2="245" y2="178" fill="rgb(0, 0, 0)" stroke="rgb(60, 60, 60)" stroke-width="1px" opacity="0.25"></line><line x1="280" y1="0" x2="280" y2="178" fill="rgb(0, 0, 0)" stroke="rgb(60, 60, 60)" stroke-width="1px" opacity="0.25"></line></g><g><line x1="0" y1="178" x2="280" y2="178" fill="rgb(0, 0, 0)" stroke="rgb(60, 60, 60)" stroke-width="1px" opacity="0.25"></line><line x1="0" y1="155.75" x2="280" y2="155.75" fill="rgb(0, 0, 0)" stroke="rgb(60, 60, 60)" stroke-width="1px" opacity="0.25"></line><line x1="0" y1="133.5" x2="280" y2="133.5" fill="rgb(0, 0, 0)" stroke="rgb(60, 60, 60)" stroke-width="1px" opacity="0.25"></line><line x1="0" y1="111.24999999999999" x2="280" y2="111.24999999999999" fill="rgb(0, 0, 0)" stroke="rgb(60, 60, 60)" stroke-width="1px" opacity="0.25"></line><line x1="0" y1="88.99999999999999" x2="280" y2="88.99999999999999" fill="rgb(0, 0, 0)" stroke="rgb(60, 60, 60)" stroke-width="1px" opacity="0.25"></line><line x1="0" y1="66.75" x2="280" y2="66.75" fill="rgb(0, 0, 0)" stroke="rgb(60, 60, 60)" stroke-width="1px" opacity="0.25"></line><line x1="0" y1="44.5" x2="280" y2="44.5" fill="rgb(0, 0, 0)" stroke="rgb(60, 60, 60)" stroke-width="1px" opacity="0.25"></line><line x1="0" y1="22.25" x2="280" y2="22.25" fill="rgb(0, 0, 0)" stroke="rgb(60, 60, 60)" stroke-width="1px" opacity="0.25"></line><line x1="0" y1="0" x2="280" y2="0" fill="rgb(0, 0, 0)" stroke="rgb(60, 60, 60)" stroke-width="1px" opacity="0.25"></line></g></g></g><g><g><line x1="0" y1="155.75" x2="280" y2="155.75" fill="rgb(0, 0, 0)" stroke="rgb(153, 153, 153)" stroke-width="1.5px"></line></g></g><g><g><line x1="35" y1="0" x2="35" y2="178" fill="rgb(0, 0, 0)" stroke="rgb(153, 153, 153)" stroke-width="1.5px"></line></g></g><g><g><g><g><g><path stroke="rgb(255, 112, 67)" stroke-width="2px" d="M37.1,-0.0394563896403497L35.7,0.8284825293386575L36.4,0.9958271090122253L37.1,3.3096394602397083L37.800000000000004,4.715628960406718L38.5,7.8584549635271514L39.2,10.721352256144314L39.9,13.929388136805386L40.599999999999994,17.326592508652368L41.3,19.490633705189254L42,23.399690121296914L42.699999999999996,25.80509418360799L43.4,27.091334690324146L44.1,30.017925981065304L44.800000000000004,30.34762149271728L45.5,33.809671074019974L46.2,34.6500452204904L46.900000000000006,35.6742869824775L47.6,37.62015566235979L48.3,38.415866151720564L49,37.293940081861734L49.699999999999996,38.613058113912814L50.4,37.64297352099547L51.1,39.547847101791035L51.8,41.46748583418025L52.5,42.54681034637221L53.2,41.9195043645899L53.9,42.578625734487304L54.6,41.08524540904418L55.300000000000004,42.0343639885225L56,41.69614971734944L56.7,42.80776453144571L57.4,47.0010975166532L58.099999999999994,47.191451190202685L58.8,47.26599399951485L59.5,49.99504544183381L60.199999999999996,49.90359518431055L60.9,54.67866213162982L61.6,55.29592024718633L62.300000000000004,53.02728694912999L63,52.86319115898306L63.7,54.73105294795647L64.4,56.75529114186428L65.10000000000001,54.98739105329314L65.8,54.90780806461147L66.5,52.857313507303616L67.2,56.31030761213414L67.89999999999999,55.98588273531924L68.6,59.48562451366989L69.3,59.32557133534188L70,61.81921405016655L70.7,61.81129941594169L71.4,64.88579057009001L72.10000000000001,65.60208514541978L72.8,68.5092044366039L73.5,68.23775567368489L74.2,68.75470620844258L74.9,66.35818037661011L75.60000000000001,64.68492744131142L76.30000000000001,67.47777384974512L77,65.69023958121508L77.7,67.9516669170545L78.4,69.68276994565048L79.1,71.84326186858961L79.8,73.75636093666165L80.5,74.14059779554611L81.19999999999999,76.26111229962113L81.89999999999999,75.73340763870478L82.6,76.02881177201036L83.3,74.75810809096193L84,77.62132955289184L84.7,76.38059825120152L85.39999999999999,76.61420260916816L86.1,74.84279693991343L86.8,76.87676831978798L87.5,77.68646045266533L88.2,79.05537066900101L88.9,81.91098806883912L89.60000000000001,81.99215495959531L90.3,83.72961856350668L91,83.30921751514298L91.7,84.060143621297L92.4,86.10673196407039L93.10000000000001,85.89705667073653L93.80000000000001,88.52677049741226L94.5,85.98004803362532L95.2,86.34080662311939L95.9,87.76684941042556L96.6,85.85444998257812L97.3,85.58748733707344L98,86.40436619346187L98.69999999999999,88.64825155034566L99.39999999999999,89.53472705897634L100.1,93.49762508402434L100.8,94.65503401833871L101.5,91.79977676438153L102.2,91.34580209354675L102.89999999999999,90.62680770456859L103.6,91.62535269558472L104.3,92.09051193296933L105,92.49064474999919L105.7,92.27248935520657L106.4,91.65433044207101L107.10000000000001,91.13151850087645L107.8,94.63781949748517L108.5,96.61617574018192L109.2,95.42066782666414L109.9,97.96322660418255L110.60000000000001,99.37564468247831L111.30000000000001,98.22067966379608L112,96.94600664566687L112.7,98.07016730899053L113.4,99.49720718618893L114.1,97.89712745640674L114.8,96.7462309997916L115.5,96.55695289979218L116.19999999999999,96.9356833315482L116.89999999999999,96.57761235336008L117.6,99.09962113082136L118.3,99.09175868856742L119,98.57133378999134L119.7,99.34484683523594L120.39999999999999,99.22888658076536L121.1,102.08641627210386L121.8,103.32624744938616L122.5,101.77801984290363L123.2,101.45535713875343L123.9,102.73035466339618L124.60000000000001,102.51885506609933L125.3,101.23166663110172L126,100.9173605481381L126.7,100.55546334025829L127.4,100.086677930579L128.1,99.80624749769295L128.8,100.99990989273502L129.5,100.88277817371913L130.20000000000002,101.6527749514784L130.9,100.52255449987683L131.6,99.86086980281611L132.29999999999998,100.7692250238558L133,101.80088051716687L133.7,102.50685153341414L134.4,98.67349646053387L135.1,99.61889397836728L135.79999999999998,101.89063401363492L136.5,101.42511151338935L137.2,103.4833109832127L137.9,101.87794737555498L138.6,102.97314666532226L139.3,104.08442722751349L140,104.64634460207014L35.7,104.94660535452478L36.4,104.57399494646617L37.1,103.34284968792574L37.800000000000004,103.00107795369135L38.5,104.40617563647929L39.2,101.4701713938886L39.9,103.09837112542236L40.599999999999994,101.14137373993543L41.3,99.96157873052206L42,100.64924428688197L42.699999999999996,101.32586683527653L43.4,102.51737182555213L44.1,102.5225372059203L44.800000000000004,101.19579531211L45.5,99.11526122962438L46.2,100.85742455586792L46.900000000000006,102.07245138207078L47.6,100.30386850189566L48.3,101.35362735659719L49,102.2232217745235L49.699999999999996,102.40965719260277L50.4,101.69342115961014L51.1,102.18807907964289L51.8,102.49267986455857L52.5,100.0483747365433L53.2,101.34367378606545L53.9,100.94878254863112L54.6,101.18065007944398L55.300000000000004,101.19504249942L56,98.94273200542746L56.7,100.1638831312121L57.4,102.04650881377822L58.099999999999994,102.36031930439451L58.8,103.60568117375837L59.5,103.6413079755048L60.199999999999996,104.20080963114142L60.9,103.81452684902692L61.6,103.63872826578346L62.300000000000004,102.43250564326124L63,104.23084745460316L63.7,103.0548745104883L64.4,104.10723163242423L65.10000000000001,104.39969750675728L65.8,104.40089667101604L66.5,101.03823716795387L67.2,102.7954750559088L67.89999999999999,104.38188791879156L68.6,108.85489968125903L69.3,109.1384338478141L70,110.06954043745357L70.7,111.8575444974861L71.4,111.45339272668133L72.10000000000001,108.0747795417915L72.8,106.99792783647837L73.5,108.7258255731467L74.2,110.0192004770877L74.9,110.45922251825583L75.60000000000001,110.88665715029866L76.30000000000001,110.25956677896399L77,111.72399261893402L77.7,111.09302024425013L78.4,113.16519561935031L79.1,115.71086966412403L79.8,113.6657064045497L80.5,113.58678225785663L81.19999999999999,113.99490435189111L81.89999999999999,114.86943243304552L82.6,114.32572803711687L83.3,112.9992337662923L84,114.82523989313529L84.7,115.5863061227422L85.39999999999999,118.43973746764786L86.1,115.86634654622154L86.8,114.94860489261671L87.5,117.43359824772195L88.2,120.56267421695897L88.9,118.84526526482885L89.60000000000001,120.65670523674481L90.3,118.90559617657178L91,121.96182973372171L91.7,122.70049326233404L92.4,120.81000185377798L93.10000000000001,122.48609104375481L93.80000000000001,123.0951766021278L94.5,123.48742520196595L95.2,120.80120541681862L95.9,119.47990544754275L96.6,119.11061800192601L97.3,118.94337875944855L98,119.95598771454382L98.69999999999999,122.62100639213018L99.39999999999999,124.11777395170267L100.1,125.39830755389534L100.8,125.9117314320612L101.5,124.8299856574421L102.2,122.83266019171981L102.89999999999999,123.90446908382481L103.6,124.84543693129959L104.3,126.68577817866053L105,128.0409834878972L105.7,126.77957584842031L106.4,124.83659355869284L107.10000000000001,126.99913561064238L107.8,127.28600371014019L108.5,128.3020195879396L109.2,128.4607332389269L109.9,127.39189837817632L110.60000000000001,130.05903119560648L111.30000000000001,132.3329883677755L112,131.875836963236L112.7,129.50558915423133L113.4,130.08239759616123L114.1,131.88900388248007L114.8,131.28835387508417L115.5,129.7100742040893L116.19999999999999,130.23845855467442L116.89999999999999,131.368939196008L117.6,131.05137949880213L118.3,132.15023758975417L119,129.93535084109158L119.7,131.87827119577318L120.39999999999999,131.67924478559726L121.1,132.69700122868437L121.8,133.89215800014387L122.5,134.27207945047172L123.2,135.51928325002402L123.9,134.90472934547074L124.60000000000001,134.8477675163925L125.3,135.15221920276764L126,136.29596458175826L126.7,136.72237873404652L127.4,137.12860807525772L128.1,137.14354907868898L128.8,135.97738611488697L129.5,134.50454891943428L130.20000000000002,134.66529738440212L130.9,137.41169503798542L131.6,138.1981705246595L132.29999999999998,139.11141297478838L133,139.773879419323L133.7,138.55983854118358L134.4,138.67512203772884L135.1,139.79754095089447L135.79999999999998,138.7447615954996L136.5,139.24241912625556L137.2,139.2500187695761L137.9,140.00096182022926L138.6,139.88280988034268L139.3,138.96479837177193L140,137.81451174663303L140.7,139.33372293142554L141.4,141.88748790906715L142.1,142.29084713138252L142.8,141.5058259271211L143.5,140.30539605931202L144.20000000000002,141.2376137005732L144.89999999999998,141.84333952009354L145.6,142.46633488902253L146.29999999999998,142.72589626964213L147,142.77894450981188L147.7,141.94042432611445L148.4,140.8085452843026L149.1,141.60900325347876L149.8,140.1560210214251L150.5,140.44698311842643L151.20000000000002,141.4762984332869L151.9,142.5335900101024L152.60000000000002,143.55053019377337L153.29999999999998,143.7852269067034L154,143.06193095169453L154.7,143.6416471844732L155.4,143.69169023012037L156.1,143.28178722038814L156.8,143.9106161043045L157.5,144.3286719736455L158.2,145.41891529363383L158.9,145.31303304628722L159.6,144.6552260105085L160.3,144.73571978490182L161,144.10289127293603L161.70000000000002,144.6997788126074L162.39999999999998,145.781158320594L163.1,146.02664448618182L163.79999999999998,145.96274559676223L164.5,145.67647055822357L165.2,146.5958443114921L165.9,147.2124959605792L166.6,147.32335510494462L167.3,147.30839031572432L168,146.2677482441681L168.70000000000002,146.3607770115505L169.4,145.3908804221672L170.10000000000002,144.2360826336576L170.79999999999998,145.19932558704812L171.5,145.60511690270545L172.2,146.3443231874206L172.9,146.07657824268927L173.6,146.971407449609L174.3,147.62175006575342L175,146.92213742603036L175.7,147.01831135031088L176.4,146.2649813532919L177.1,146.69375975668967L177.8,147.70199110129798L178.5,148.08617507230832L179.20000000000002,147.31401372514125L179.89999999999998,147.74123527668092L180.6,148.10806249715193L181.29999999999998,148.12608191005768L182,147.68874756474722L182.7,147.78970048191803L183.4,148.3723795912424L184.1,148.55938458006142L184.8,148.27229128590557L185.5,148.52693585640986L186.20000000000002,148.48218494183897L186.9,148.73502835796523L187.60000000000002,148.8601702230647L188.29999999999998,149.3127307770386L189,149.59182149523406L189.7,148.9342032148177L190.4,148.6125631525358L191.1,147.40072604681495L191.8,148.01947433488334L192.5,148.17487625322798L193.2,149.21585663097835L193.9,149.46274579167505L194.6,148.8995248666414L195.3,149.1240825625365L196,149.56475803536802L196.70000000000002,149.92703182120698L197.39999999999998,149.4990536085938L198.1,149.51476334033458L198.79999999999998,148.87933407499224L199.5,148.99347844957606L200.2,149.51345939927873L200.9,149.28687911104308L201.6,149.06860156056968L202.3,148.51017416237406L203,149.2133341895408L203.70000000000002,149.53111180465618L204.4,149.6252276203853L205.10000000000002,148.439476087798L205.79999999999998,149.08255207358857L206.5,149.2690996390227L207.2,149.28516423250102L207.9,149.6762220549277L208.6,150.12705590986857L209.3,150.3282340819457L210,150.6791887844991L210.7,150.62499041276521L211.4,150.34840770128278L212.1,150.4376633629227L212.8,149.4057586097732L213.5,149.91784980581787L214.20000000000002,149.89150917864794L214.89999999999998,150.31437855377467L215.6,149.73969123722418L216.29999999999998,149.6948909105289L217,149.8099691784488L217.7,150.04226862139146L218.4,150.70533432548726L219.1,150.92873358010044L219.8,149.89730314555044L220.5,150.21308752196893L221.20000000000002,150.59892576179126L221.9,150.90517004499566L222.60000000000002,150.45056090158064L223.29999999999998,150.3529663214197L224,150.16679598788085L224.7,150.1083202959577L225.4,150.70311781251309L226.1,151.03786348057616L226.8,151.11622489543453L227.5,150.85946442403912L228.2,150.7560347935171L228.9,150.8612944764263L229.6,151.02785601883332L230.3,150.78065441090882L231,151.10708904624892L231.70000000000002,150.47187720640548L232.39999999999998,149.9764743098858L233.1,149.66334299813167L233.79999999999998,150.0198874280331L234.5,149.46815395834906L235.2,150.1167038659475L235.9,150.29762170867454L236.6,149.71748778130907L237.3,149.85837462004304L238,150.3422517487036L238.70000000000002,150.82966212122898L239.4,150.5467124775157L240.10000000000002,150.0972666301641L240.79999999999998,150.2833923348524L241.5,150.40084834650088L242.2,150.95214957560557L242.9,151.17700893843445L243.6,150.90227343873246L244.3,150.32581625125448L245,149.9855317200967" style="fill: none;" fill="none"></path></g></g></g></g><g opacity="0.2"><g><g><g><path stroke="rgb(255, 112, 67)" stroke-width="2px" d="M35.7,-2.2357242107391357L36.4,0.26593294739723206L37.1,-0.32987716794013977L36.4,-0.4972440302371979L37.1,0.6321772634983063L35.7,2.0696490705013275L36.4,1.2398171126842499L37.1,6.72206324338913L37.800000000000004,6.803359508514404L38.5,12.544188767671585L39.2,15.000118434429169L39.9,18.730967164039612L40.599999999999994,22.415743589401245L41.3,22.734151750802994L42,29.26051777601242L42.699999999999996,29.41218239068985L43.4,29.02036887407303L44.1,34.40736708045006L44.800000000000004,30.84213462471962L45.5,39.00255557894707L46.2,35.91057878732681L46.900000000000006,37.210629403591156L47.6,40.538935631513596L48.3,39.609426230192184L49,35.6110557615757L49.699999999999996,40.591731786727905L50.4,36.18784812092781L51.1,42.40515571832657L51.8,44.346942871809006L52.5,44.165796756744385L53.2,40.978545516729355L53.9,43.56730771064758L54.6,38.84517502784729L55.300000000000004,43.458041816949844L56,41.18882831931114L56.7,44.47518673539162L57.4,53.291096955537796L58.099999999999994,47.476981699466705L58.8,47.37780821323395L59.5,54.088622599840164L60.199999999999996,49.76641979813576L60.9,61.84126254916191L61.6,56.221807420253754L62.300000000000004,49.624337002635L63,52.61704747378826L63.7,57.5328456312418L64.4,59.79164843261242L65.10000000000001,52.33554092049599L65.8,54.78843358159065L66.5,49.78157167136669L67.2,61.48979876935482L67.89999999999999,55.499245420098305L68.6,64.73523718118668L69.3,59.08549156785011L70,65.55967812240124L70.7,61.79942746460438L71.4,69.4975273013115L72.10000000000001,66.67652700841427L72.8,72.86988337337971L73.5,67.83058252930641L74.2,69.53013201057911L74.9,62.76339162886143L75.60000000000001,62.17504803836346L76.30000000000001,71.66704346239567L77,63.00893817842007L77.7,71.34380792081356L78.4,72.27942448854446L79.1,75.08399975299835L79.8,76.62600953876972L80.5,74.7169530838728L81.19999999999999,79.44188405573368L81.89999999999999,74.94185064733028L82.6,76.47191797196865L83.3,72.85205256938934L84,81.91616174578667L84.7,74.519501298666L85.39999999999999,76.96460914611816L86.1,72.18568843603134L86.8,79.9277253895998L87.5,78.90099865198135L88.2,81.10873599350452L88.9,86.19441416859627L89.60000000000001,82.11390529572964L90.3,86.3358139693737L91,82.67861594259739L91.7,85.18653278052807L92.4,89.17661447823048L93.10000000000001,85.58254373073578L93.80000000000001,92.4713412374258L94.5,82.15996433794498L95.2,86.88194450736046L95.9,89.90591359138489L96.6,82.98585084080696L97.3,85.18704336881638L98,87.62968447804451L98.69999999999999,92.01407958567142L99.39999999999999,90.8644403219223L100.1,99.44197212159634L100.8,96.3911474198103L101.5,87.51689088344574L102.2,90.66484008729458L102.89999999999999,89.54831612110138L103.6,93.12317018210888L104.3,92.78825078904629L105,93.09084397554398L105.7,91.94525626301765L106.4,90.72709207236767L107.10000000000001,90.34730058908463L107.8,99.89727099239826L108.5,99.58371010422707L109.2,93.62740595638752L109.9,101.77706477046013L110.60000000000001,101.49427179992199L111.30000000000001,96.4882321357727L112,95.03399711847305L112.7,99.75640830397606L113.4,101.6377670019865L114.1,95.49700786173344L114.8,95.01988631486893L115.5,96.27303574979305L116.19999999999999,97.50377897918224L116.89999999999999,96.04050588607788L117.6,102.88263429701328L118.3,99.07996502518654L119,97.79069644212723L119.7,100.50511640310287L120.39999999999999,99.05494619905949L121.1,106.3727108091116L121.8,105.18599421530962L122.5,99.45567843317986L123.2,100.97136308252811L123.9,104.6428509503603L124.60000000000001,102.2016056701541L125.3,99.30088397860527L126,100.4459014236927L126.7,100.01261752843857L127.4,99.38349981606007L128.1,99.38560184836388L128.8,102.79040348529816L129.5,100.7070805951953L130.20000000000002,102.80777011811733L130.9,98.82722382247448L131.6,98.86834275722504L132.29999999999998,102.13175785541534L133,103.34836375713348L133.7,103.56580805778503L134.4,92.92346385121346L135.1,101.03699025511742L135.79999999999998,105.29824406653643L136.5,100.72682776302099L137.2,106.57061018794775L137.9,99.46990196406841L138.6,104.6159455999732L139.3,105.7513480708003L140,105.48922066390514L35.7,105.39699648320675L36.4,104.01507933437824L37.1,101.49613180011511L37.800000000000004,102.48842035233974L38.5,106.51382216066122L39.2,97.0661650300026L39.9,105.54067072272301L40.599999999999994,98.20587766170502L41.3,98.19188621640205L42,101.68074262142181L42.699999999999996,102.34080065786839L43.4,104.30462931096554L44.1,102.53028527647257L44.800000000000004,99.20568247139454L45.5,95.994460105896L46.2,103.47066954523325L46.900000000000006,103.89499162137508L47.6,97.650994181633L48.3,102.92826563864946L49,103.52761340141296L49.699999999999996,102.6893103197217L50.4,100.61906711012125L51.1,102.930065959692L51.8,102.9495810419321L52.5,96.38191704452038L53.2,103.2866223603487L53.9,100.35644569247961L54.6,101.52845137566328L55.300000000000004,101.21663112938404L56,95.56426626443863L56.7,101.99560981988907L57.4,104.87044733762741L58.099999999999994,102.83103504031897L58.8,105.47372397780418L59.5,103.69474817812443L60.199999999999996,105.04006211459637L60.9,103.23510267585516L61.6,103.37503039091825L62.300000000000004,100.6231717094779L63,106.92836017161608L63.7,101.290915094316L64.4,105.68576731532812L65.10000000000001,104.83839631825686L65.8,104.40269541740417L66.5,95.9942479133606L67.2,105.43133188784122L67.89999999999999,106.76150721311569L68.6,115.56441732496023L69.3,109.56373509764671L70,111.46620032191277L70.7,114.5395505875349L71.4,110.84716507047415L72.10000000000001,103.00685976445675L72.8,105.38265027850866L73.5,111.31767217814922L74.2,111.95926283299923L74.9,111.11925558000803L75.60000000000001,111.52780909836292L76.30000000000001,109.31893122196198L77,113.92063137888908L77.7,110.14656168222427L78.4,116.27345868200064L79.1,119.52938073128462L79.8,110.59796151518822L80.5,113.468396037817L81.19999999999999,114.60708749294281L81.89999999999999,116.18122455477715L82.6,113.51017144322395L83.3,111.00949236005545L84,117.56424908339977L84.7,116.7279054671526L85.39999999999999,122.71988448500633L86.1,112.00626016408205L86.8,113.57199241220951L87.5,121.16108828037977L88.2,125.25628817081451L88.9,116.26915183663368L89.60000000000001,123.3738651946187L90.3,116.2789325863123L91,126.54618006944656L91.7,123.80848855525255L92.4,117.97426474094391L93.10000000000001,125.00022482872009L93.80000000000001,124.00880493968725L94.5,124.0757981017232L95.2,116.7718757390976L95.9,117.49795549362898L96.6,118.55668683350086L97.3,118.6925198957324L98,121.47490114718676L98.69999999999999,126.61853440850973L99.39999999999999,126.3629252910614L100.1,127.31910795718431L100.8,126.68186724931002L101.5,123.20736699551344L102.2,119.8366719931364L102.89999999999999,125.51218242198229L103.6,126.25688870251179L104.3,129.44629004970193L105,130.0737914517522L105.7,124.88746438920498L106.4,121.92212012410164L107.10000000000001,130.24294868856668L107.8,127.71630585938692L108.5,129.82604340463877L109.2,128.69880371540785L109.9,125.78864608705044L110.60000000000001,134.05973042175174L111.30000000000001,135.74392412602901L112,131.19010985642672L112.7,125.95021744072437L113.4,130.9476102590561L114.1,134.5989133119583L114.8,130.3873788639903L115.5,127.34265469759703L116.19999999999999,131.0310350805521L116.89999999999999,133.06466015800834L117.6,130.5750399529934L118.3,133.79852472618222L119,126.61302071809769L119.7,134.7926517277956L120.39999999999999,131.38070517033339L121.1,134.22363589331508L121.8,135.68489315733314L122.5,134.84196162596345L123.2,137.3900889493525L123.9,133.98289848864079L124.60000000000001,134.76232477277517L125.3,135.60889673233032L126,138.01158265024424L126.7,137.36199996247888L127.4,137.73795208707452L128.1,137.16596058383584L128.8,134.22814166918397L129.5,132.29529312625527L130.20000000000002,134.90642008185387L130.9,141.53129151836038L131.6,139.37788375467062L132.29999999999998,140.48127664998174L133,140.7675790861249L133.7,136.73877722397447L134.4,138.84804728254676L135.1,141.48116932064295L135.79999999999998,137.16559256240726L136.5,139.9889054223895L137.2,139.2614182345569L137.9,141.127376396209L138.6,139.70558197051287L139.3,137.5877811089158L140,136.08908180892467L140.7,141.61253970861435L141.4,145.71813537552953L142.1,142.89588596485555L142.8,140.32829412072897L143.5,138.5047512575984L144.20000000000002,142.63594016246498L144.89999999999998,142.75192824937403L145.6,143.40082794241607L146.29999999999998,143.11523834057152L147,142.85851687006652L147.7,140.68264405056834L148.4,139.1107267215848L149.1,142.80969020724297L149.8,137.9765476733446L150.5,140.8834262639284L151.20000000000002,143.02027140557766L151.9,144.11952737532556L152.60000000000002,145.07594046927989L153.29999999999998,144.13727197609842L154,141.97698701918125L154.7,144.51122153364122L155.4,143.76675479859114L156.1,142.6669327057898L156.8,144.853859430179L157.5,144.95575577765703L158.2,147.0542802736163L158.9,145.15420967526734L159.6,143.6685154568404L160.3,144.85646044649184L161,143.15364850498736L161.70000000000002,145.59511012211442L162.39999999999998,147.4032275825739L163.1,146.3948737345636L163.79999999999998,145.86689726263285L164.5,145.24705800041556L165.2,147.97490494139493L165.9,148.13747343420982L166.6,147.4896438214928L167.3,147.28594313189387L168,144.7067851368338L168.70000000000002,146.50032016262412L169.4,143.93603553809226L170.10000000000002,142.50388595089316L170.79999999999998,146.64419001713395L171.5,146.21380387619138L172.2,147.45313261449337L172.9,145.67496082559228L173.6,148.31365125998855L174.3,148.5972639899701L175,145.8727184664458L175.7,147.16257223673165L176.4,145.1349863577634L177.1,147.33692736178637L177.8,149.21433811821043L178.5,148.66245102882385L179.20000000000002,146.15577170439065L179.89999999999998,148.38206760399044L180.6,148.65830332785845L181.29999999999998,148.15311102941632L182,147.03274604678154L182.7,147.94112985767424L183.4,149.246398255229L184.1,148.83989206328988L184.8,147.84165134467185L185.5,148.9089027121663L186.20000000000002,148.41505856998265L186.9,149.1142934821546L187.60000000000002,149.04788302071393L188.29999999999998,149.9915716079995L189,150.01045757252723L189.7,147.94777579419315L190.4,148.13010305911303L191.1,145.58297038823366L191.8,148.94759676698595L192.5,148.40797913074493L193.2,150.77732719760388L193.9,149.83307953272015L194.6,148.05469347909093L195.3,149.46091910637915L196,150.22577124461532L196.70000000000002,150.47044249996543L197.39999999999998,148.85708628967404L198.1,149.53832793794572L198.79999999999998,147.9261901769787L199.5,149.16469501145184L200.2,150.29343082383275L200.9,148.9470086786896L201.6,148.74118523485959L202.3,147.67253306508064L203,150.26807423029095L203.70000000000002,150.00777822732925L204.4,149.76640134397894L205.10000000000002,146.66084878891706L205.79999999999998,150.0471660522744L206.5,149.54892098717391L207.2,149.30926112271845L207.9,150.26280878856778L208.6,150.80330669227988L209.3,150.63000134006143L210,151.2056208383292L210.7,150.5436928551644L211.4,149.93353363405913L212.1,150.57154685538262L212.8,147.8579014800489L213.5,150.68598659988493L214.20000000000002,149.85199823789299L214.89999999999998,150.9486826164648L215.6,148.87766026239842L216.29999999999998,149.62769042048603L217,149.98258658032864L217.7,150.39071778580546L218.4,151.69993288163096L219.1,151.26383246202022L219.8,148.35015749372542L220.5,150.68676408659667L221.20000000000002,151.17768312152475L221.9,151.36453646980226L222.60000000000002,149.7686471864581L223.29999999999998,150.2065744511783L224,149.88754048757255L224.7,150.02060675807297L225.4,151.5953140873462L226.1,151.53998198267072L226.8,151.23376701772213L227.5,150.47432371694595L228.2,150.6008903477341L228.9,151.01918400079012L229.6,151.27769833244383L230.3,150.40985199902207L231,151.59674099925905L231.70000000000002,149.5190594466403L232.39999999999998,149.23336996510625L233.1,149.19364603050053L233.79999999999998,150.55470407288522L234.5,148.64055375382304L235.2,151.08952872734517L235.9,150.5689984727651L236.6,148.84728689026088L237.3,150.06970487814397L238,151.06806744169444L238.70000000000002,151.56077768001705L239.4,150.12228801194578L240.10000000000002,149.42309785913676L240.79999999999998,150.56258089188486L241.5,150.57703236397356L242.2,151.7791014192626L242.9,151.51429798267782L243.6,150.49017018917948L244.3,149.46113047003746L245,149.47510492336005" style="fill: none;" fill="none"></path></g></g></g></g></g></g><g transform="translate(50, 178)" clip-path="url(#clip_1)"><clipPath id="clip_1"><rect width="280" height="22"></rect></clipPath><g><g><line x1="0" y1="0" x2="0" y2="5" style="visibility: inherit;" fill="rgb(0, 0, 0)" stroke="rgb(204, 204, 204)" stroke-width="1px"></line><line x1="35" y1="0" x2="35" y2="5" style="visibility: inherit;" fill="rgb(0, 0, 0)" stroke="rgb(204, 204, 204)" stroke-width="1px"></line><line x1="70" y1="0" x2="70" y2="5" style="visibility: inherit;" fill="rgb(0, 0, 0)" stroke="rgb(204, 204, 204)" stroke-width="1px"></line><line x1="105" y1="0" x2="105" y2="5" style="visibility: inherit;" fill="rgb(0, 0, 0)" stroke="rgb(204, 204, 204)" stroke-width="1px"></line><line x1="140" y1="0" x2="140" y2="5" style="visibility: inherit;" fill="rgb(0, 0, 0)" stroke="rgb(204, 204, 204)" stroke-width="1px"></line><line x1="175" y1="0" x2="175" y2="5" style="visibility: inherit;" fill="rgb(0, 0, 0)" stroke="rgb(204, 204, 204)" stroke-width="1px"></line><line x1="210" y1="0" x2="210" y2="5" style="visibility: inherit;" fill="rgb(0, 0, 0)" stroke="rgb(204, 204, 204)" stroke-width="1px"></line><line x1="245" y1="0" x2="245" y2="5" style="visibility: inherit;" fill="rgb(0, 0, 0)" stroke="rgb(204, 204, 204)" stroke-width="1px"></line><line x1="280" y1="0" x2="280" y2="5" style="visibility: inherit;" fill="rgb(0, 0, 0)" stroke="rgb(204, 204, 204)" stroke-width="1px"></line></g><g transform="translate(0, 8)"><text x="0" y="0" dx="0em" dy="0.95em" style="text-anchor: middle; visibility: hidden; font-family: &quot;Helvetica Neue&quot;, sans-serif; font-size: 12px; font-weight: 200;" fill="rgb(50, 49, 63)" stroke="none" stroke-width="1px">-500</text><text x="35" y="0" dx="0em" dy="0.95em" style="text-anchor: middle; visibility: inherit; font-family: &quot;Helvetica Neue&quot;, sans-serif; font-size: 12px; font-weight: 200;" fill="rgb(50, 49, 63)" stroke="none" stroke-width="1px">0</text><text x="70" y="0" dx="0em" dy="0.95em" style="text-anchor: middle; visibility: inherit; font-family: &quot;Helvetica Neue&quot;, sans-serif; font-size: 12px; font-weight: 200;" fill="rgb(50, 49, 63)" stroke="none" stroke-width="1px">500</text><text x="105" y="0" dx="0em" dy="0.95em" style="text-anchor: middle; visibility: inherit; font-family: &quot;Helvetica Neue&quot;, sans-serif; font-size: 12px; font-weight: 200;" fill="rgb(50, 49, 63)" stroke="none" stroke-width="1px">1k</text><text x="140" y="0" dx="0em" dy="0.95em" style="text-anchor: middle; visibility: inherit; font-family: &quot;Helvetica Neue&quot;, sans-serif; font-size: 12px; font-weight: 200;" fill="rgb(50, 49, 63)" stroke="none" stroke-width="1px">1.5k</text><text x="175" y="0" dx="0em" dy="0.95em" style="text-anchor: middle; visibility: inherit; font-family: &quot;Helvetica Neue&quot;, sans-serif; font-size: 12px; font-weight: 200;" fill="rgb(50, 49, 63)" stroke="none" stroke-width="1px">2k</text><text x="210" y="0" dx="0em" dy="0.95em" style="text-anchor: middle; visibility: inherit; font-family: &quot;Helvetica Neue&quot;, sans-serif; font-size: 12px; font-weight: 200;" fill="rgb(50, 49, 63)" stroke="none" stroke-width="1px">2.5k</text><text x="245" y="0" dx="0em" dy="0.95em" style="text-anchor: middle; visibility: inherit; font-family: &quot;Helvetica Neue&quot;, sans-serif; font-size: 12px; font-weight: 200;" fill="rgb(50, 49, 63)" stroke="none" stroke-width="1px">3k</text><text x="280" y="0" dx="0em" dy="0.95em" style="text-anchor: middle; visibility: hidden; font-family: &quot;Helvetica Neue&quot;, sans-serif; font-size: 12px; font-weight: 200;" fill="rgb(50, 49, 63)" stroke="none" stroke-width="1px">3.5k</text></g><line x1="0" y1="0" x2="280" y2="0" fill="rgb(0, 0, 0)" stroke="rgb(204, 204, 204)" stroke-width="1px"></line></g></g></g></g></svg>