<svg viewBox="0 0 330 200" xmlns="http://www.w3.org/2000/svg"><g><g><g><g><g><line x1="60" y1="178" x2="55" y2="178" style="visibility: inherit;" fill="rgb(0, 0, 0)" stroke="rgb(204, 204, 204)" stroke-width="1px"></line><line x1="60" y1="158.22222222222223" x2="55" y2="158.22222222222223" style="visibility: inherit;" fill="rgb(0, 0, 0)" stroke="rgb(204, 204, 204)" stroke-width="1px"></line><line x1="60" y1="138.44444444444446" x2="55" y2="138.44444444444446" style="visibility: inherit;" fill="rgb(0, 0, 0)" stroke="rgb(204, 204, 204)" stroke-width="1px"></line><line x1="60" y1="118.66666666666667" x2="55" y2="118.66666666666667" style="visibility: inherit;" fill="rgb(0, 0, 0)" stroke="rgb(204, 204, 204)" stroke-width="1px"></line><line x1="60" y1="98.8888888888889" x2="55" y2="98.8888888888889" style="visibility: inherit;" fill="rgb(0, 0, 0)" stroke="rgb(204, 204, 204)" stroke-width="1px"></line><line x1="60" y1="79.11111111111113" x2="55" y2="79.11111111111113" style="visibility: inherit;" fill="rgb(0, 0, 0)" stroke="rgb(204, 204, 204)" stroke-width="1px"></line><line x1="60" y1="59.33333333333334" x2="55" y2="59.33333333333334" style="visibility: inherit;" fill="rgb(0, 0, 0)" stroke="rgb(204, 204, 204)" stroke-width="1px"></line><line x1="60" y1="39.55555555555557" x2="55" y2="39.55555555555557" style="visibility: inherit;" fill="rgb(0, 0, 0)" stroke="rgb(204, 204, 204)" stroke-width="1px"></line><line x1="60" y1="19.7777777777778" x2="55" y2="19.7777777777778" style="visibility: inherit;" fill="rgb(0, 0, 0)" stroke="rgb(204, 204, 204)" stroke-width="1px"></line><line x1="60" y1="0" x2="55" y2="0" style="visibility: inherit;" fill="rgb(0, 0, 0)" stroke="rgb(204, 204, 204)" stroke-width="1px"></line></g><g transform="translate(50, 0)"><text x="0" y="178" dx="0em" dy="0.3em" style="text-anchor: end; visibility: hidden; font-family: &quot;Helvetica Neue&quot;, sans-serif; font-size: 12px; font-weight: 200;" fill="rgb(50, 49, 63)" stroke="none" stroke-width="1px">-1e-4</text><text x="0" y="158.22222222222223" dx="0em" dy="0.3em" style="text-anchor: end; visibility: inherit; font-family: &quot;Helvetica Neue&quot;, sans-serif; font-size: 12px; font-weight: 200;" fill="rgb(50, 49, 63)" stroke="none" stroke-width="1px">0</text><text x="0" y="138.44444444444446" dx="0em" dy="0.3em" style="text-anchor: end; visibility: hidden; font-family: &quot;Helvetica Neue&quot;, sans-serif; font-size: 12px; font-weight: 200;" fill="rgb(50, 49, 63)" stroke="none" stroke-width="1px">1e-4</text><text x="0" y="118.66666666666667" dx="0em" dy="0.3em" style="text-anchor: end; visibility: inherit; font-family: &quot;Helvetica Neue&quot;, sans-serif; font-size: 12px; font-weight: 200;" fill="rgb(50, 49, 63)" stroke="none" stroke-width="1px">2e-4</text><text x="0" y="98.8888888888889" dx="0em" dy="0.3em" style="text-anchor: end; visibility: hidden; font-family: &quot;Helvetica Neue&quot;, sans-serif; font-size: 12px; font-weight: 200;" fill="rgb(50, 49, 63)" stroke="none" stroke-width="1px">3e-4</text><text x="0" y="79.11111111111113" dx="0em" dy="0.3em" style="text-anchor: end; visibility: inherit; font-family: &quot;Helvetica Neue&quot;, sans-serif; font-size: 12px; font-weight: 200;" fill="rgb(50, 49, 63)" stroke="none" stroke-width="1px">4e-4</text><text x="0" y="59.33333333333334" dx="0em" dy="0.3em" style="text-anchor: end; visibility: hidden; font-family: &quot;Helvetica Neue&quot;, sans-serif; font-size: 12px; font-weight: 200;" fill="rgb(50, 49, 63)" stroke="none" stroke-width="1px">5e-4</text><text x="0" y="39.55555555555557" dx="0em" dy="0.3em" style="text-anchor: end; visibility: inherit; font-family: &quot;Helvetica Neue&quot;, sans-serif; font-size: 12px; font-weight: 200;" fill="rgb(50, 49, 63)" stroke="none" stroke-width="1px">6e-4</text><text x="0" y="19.7777777777778" dx="0em" dy="0.3em" style="text-anchor: end; visibility: hidden; font-family: &quot;Helvetica Neue&quot;, sans-serif; font-size: 12px; font-weight: 200;" fill="rgb(50, 49, 63)" stroke="none" stroke-width="1px">7e-4</text><text x="0" y="0" dx="0em" dy="0.3em" style="text-anchor: end; visibility: hidden; font-family: &quot;Helvetica Neue&quot;, sans-serif; font-size: 12px; font-weight: 200;" fill="rgb(50, 49, 63)" stroke="none" stroke-width="1px">8e-4</text></g><line x1="60" y1="0" x2="60" y2="178" fill="rgb(0, 0, 0)" stroke="rgb(204, 204, 204)" stroke-width="1px"></line></g></g><g transform="translate(60, 0)" clip-path="url(#clip_0)"><clipPath id="clip_0"><rect width="270" height="178"></rect></clipPath><g><g><g><line x1="0" y1="0" x2="0" y2="178" fill="rgb(0, 0, 0)" stroke="rgb(60, 60, 60)" stroke-width="1px" opacity="0.25"></line><line x1="33.75" y1="0" x2="33.75" y2="178" fill="rgb(0, 0, 0)" stroke="rgb(60, 60, 60)" stroke-width="1px" opacity="0.25"></line><line x1="67.5" y1="0" x2="67.5" y2="178" fill="rgb(0, 0, 0)" stroke="rgb(60, 60, 60)" stroke-width="1px" opacity="0.25"></line><line x1="101.25" y1="0" x2="101.25" y2="178" fill="rgb(0, 0, 0)" stroke="rgb(60, 60, 60)" stroke-width="1px" opacity="0.25"></line><line x1="135" y1="0" x2="135" y2="178" fill="rgb(0, 0, 0)" stroke="rgb(60, 60, 60)" stroke-width="1px" opacity="0.25"></line><line x1="168.75" y1="0" x2="168.75" y2="178" fill="rgb(0, 0, 0)" stroke="rgb(60, 60, 60)" stroke-width="1px" opacity="0.25"></line><line x1="202.5" y1="0" x2="202.5" y2="178" fill="rgb(0, 0, 0)" stroke="rgb(60, 60, 60)" stroke-width="1px" opacity="0.25"></line><line x1="236.25" y1="0" x2="236.25" y2="178" fill="rgb(0, 0, 0)" stroke="rgb(60, 60, 60)" stroke-width="1px" opacity="0.25"></line><line x1="270" y1="0" x2="270" y2="178" fill="rgb(0, 0, 0)" stroke="rgb(60, 60, 60)" stroke-width="1px" opacity="0.25"></line></g><g><line x1="0" y1="178" x2="270" y2="178" fill="rgb(0, 0, 0)" stroke="rgb(60, 60, 60)" stroke-width="1px" opacity="0.25"></line><line x1="0" y1="158.22222222222223" x2="270" y2="158.22222222222223" fill="rgb(0, 0, 0)" stroke="rgb(60, 60, 60)" stroke-width="1px" opacity="0.25"></line><line x1="0" y1="138.44444444444446" x2="270" y2="138.44444444444446" fill="rgb(0, 0, 0)" stroke="rgb(60, 60, 60)" stroke-width="1px" opacity="0.25"></line><line x1="0" y1="118.66666666666667" x2="270" y2="118.66666666666667" fill="rgb(0, 0, 0)" stroke="rgb(60, 60, 60)" stroke-width="1px" opacity="0.25"></line><line x1="0" y1="98.8888888888889" x2="270" y2="98.8888888888889" fill="rgb(0, 0, 0)" stroke="rgb(60, 60, 60)" stroke-width="1px" opacity="0.25"></line><line x1="0" y1="79.11111111111113" x2="270" y2="79.11111111111113" fill="rgb(0, 0, 0)" stroke="rgb(60, 60, 60)" stroke-width="1px" opacity="0.25"></line><line x1="0" y1="59.33333333333334" x2="270" y2="59.33333333333334" fill="rgb(0, 0, 0)" stroke="rgb(60, 60, 60)" stroke-width="1px" opacity="0.25"></line><line x1="0" y1="39.55555555555557" x2="270" y2="39.55555555555557" fill="rgb(0, 0, 0)" stroke="rgb(60, 60, 60)" stroke-width="1px" opacity="0.25"></line><line x1="0" y1="19.7777777777778" x2="270" y2="19.7777777777778" fill="rgb(0, 0, 0)" stroke="rgb(60, 60, 60)" stroke-width="1px" opacity="0.25"></line><line x1="0" y1="0" x2="270" y2="0" fill="rgb(0, 0, 0)" stroke="rgb(60, 60, 60)" stroke-width="1px" opacity="0.25"></line></g></g></g><g><g><line x1="0" y1="158.22222222222223" x2="270" y2="158.22222222222223" fill="rgb(0, 0, 0)" stroke="rgb(153, 153, 153)" stroke-width="1.5px"></line></g></g><g><g><line x1="33.75" y1="0" x2="33.75" y2="178" fill="rgb(0, 0, 0)" stroke="rgb(153, 153, 153)" stroke-width="1.5px"></line></g></g><g><g><g><g><g><path stroke="rgb(255, 112, 67)" stroke-width="2px" d="M34.425,153.4755553876619L35.1,150.5088886160617L35.775,147.17895652549004L34.425,150.07261409082636L35.1,149.48980461055018L35.775,147.17895652549004L34.425,149.77013241164548L35.1,149.34651980307638L35.775,147.17895652549004L36.45,143.98226670797405L37.125,140.17108897956416L37.800000000000004,135.9904415141268L38.474999999999994,131.5867356907756L39.15,127.04803972160411L39.824999999999996,122.42754020354866L40.5,117.75742933439076L41.175,113.05721740420041L41.85,108.3387393170895L42.525,103.6091784658591L43.2,98.8728896798625L43.875,94.13251827576002L44.550000000000004,89.38966968697758L45.225,84.64532048533297L45.900000000000006,79.90005863761233L46.574999999999996,75.15424321191693L47.25,70.40809434593008L47.925,65.66174095512048L48.6,60.91526355426413L49.275,56.16871097020315L49.95,51.42211280988258L50.625,46.675487023992986L51.3,43.83500868881279L51.975,42.15320282212724L52.65,41.18157078450051L53.325,40.650995032309794L54,40.39996361709487L54.675000000000004,40.33153253861744L55.349999999999994,40.387480141093334L56.025,40.532818173598514L56.699999999999996,40.74647540310315L57.375,41.01573541194847L58.05,41.332871647249505L58.725,41.693160684702036L59.4,42.093653347904336L60.075,42.53246500919411L60.75,43.00834056040722L61.425000000000004,43.520388790460856L62.1,44.06794143139436L62.775000000000006,44.65043635188468L63.449999999999996,45.26737970746413L64.125,45.918304811160766L64.8,46.60275666562711L65.475,47.32027347267257L66.15,48.070389353600774L66.825,48.85261756192091L67.5,49.66645422559279L68.175,50.51138980211941L68.85,51.38688371749346L69.525,52.29238138367383L70.2,53.22731519932674L70.875,54.19109133565175L71.55,55.18309562249564L72.22500000000001,56.20270628976641L72.9,57.249278587917715L73.575,58.32215397973074L74.25,59.420651840764904L74.92500000000001,60.54407829424659L75.60000000000001,61.69172460469325L76.27499999999999,62.86286391165156L76.94999999999999,64.05675847968571L77.625,65.27265483862494L78.3,66.50978317014841L78.975,67.76736384704526L79.64999999999999,69.04459984458873L80.325,70.340686001979L81,71.65480536946319L81.675,72.98612701660754L82.35,74.33380701969715L83.025,75.69699826392092L83.7,77.07483790519206L84.375,78.46645596429461L85.05,79.87097127362607L85.725,81.28750055742474L86.4,82.71514546041516L87.075,84.15300778935912L87.75,85.60017793605896L88.425,87.05573944334127L89.10000000000001,88.51877634951998L89.775,89.98836378045597L90.45,91.46357151453824L91.125,92.94347072654544L91.80000000000001,94.42712421934453L92.47500000000001,95.91359667996456L93.14999999999999,97.40194701862269L93.82499999999999,98.89123758675814L94.5,100.38052589323418L95.175,101.86887344867765L95.85,103.35533725746441L96.52499999999999,104.83898082996521L97.2,106.31886697527503L97.875,107.79405923294152L98.55,109.26362618565668L99.225,110.7266405932173L99.9,112.18217887290126L100.575,113.62931963647505L101.25,115.06715087092562L101.925,116.49476273471765L102.6,117.91125474772974L103.275,119.31573204668885L103.95,120.70730774330363L104.625,122.0851020367082L105.3,123.44824513458278L105.97500000000001,124.7958755521717L106.65,126.1271436965668L107.325,127.44120710996842L108,128.73723567416934L108.67500000000001,130.01441127959043L109.35000000000001,131.27192762670228L110.02499999999999,132.50899068248694L110.69999999999999,133.72481837870635L111.375,134.91864273329912L112.05,136.08970997200117L112.725,137.23728002570823L113.39999999999999,138.36062853133046L114.075,139.4590463054773L114.75,140.53183902866888L115.425,141.57832878268982L116.1,142.59785497300163L116.775,143.589773730972L117.45,144.5534587064305L118.125,145.48830067978835L118.8,146.39370963174667L119.475,147.2691133948806L120.15,148.11395943483052L120.825,148.92771361658055L121.5,149.709862342271L122.175,150.4599112436451L122.85000000000001,151.17738698775776L123.525,151.8618360579645L124.2,152.5128263249513L124.875,153.1299465503297L125.55000000000001,153.71280709610963L126.22500000000001,154.261039630872L126.89999999999999,154.77429788883694L127.57499999999999,155.2522576935977L128.25,155.69461718821483L128.92499999999998,156.10109697327223L129.6,156.47144033361346L130.275,156.80541330243202L130.95,157.10280495155482L131.625,157.36342743969755L132.3,157.58711615833857L132.975,157.77372981474642L133.65,157.92315054700177L134.325,158.0352839761473L135,158.11005927457725L34.425,156.25625771981112L35.1,153.2453100531273L35.775,149.54007471929287L36.45,145.4182667851681L37.125,141.0465158664782L37.800000000000004,136.52479800583103L38.474999999999994,131.91310113122768L39.15,127.24741569703247L39.824999999999996,122.54933827830027L40.5,117.83182566884594L41.175,113.10265079374011L41.85,108.36647855924339L42.525,103.62611021154851L43.2,98.88322189349834L43.875,94.13882159323504L44.550000000000004,89.39351410364382L45.225,84.64766460289223L45.900000000000006,79.90148759300806L46.574999999999996,75.15511407764434L47.25,70.40862496142925L47.925,65.66206418226697L48.6,60.91546040533639L49.275,56.168830829744806L49.95,51.422185774956645L50.625,46.67553143265053L51.3,43.82909066937685L51.975,42.1258725279973L52.65,41.111682434228754L53.325,40.51400824837418L54,40.16933347686978L54.675000000000004,39.979552828450124L55.349999999999994,39.88579852348312L56.025,39.85274989418966L56.699999999999996,39.85920533015664L57.375,39.8924438651363L58.05,39.94483291938002L58.725,40.01178373529302L59.4,40.0905384534459L60.075,40.179442358180864L60.75,40.27748880548509L61.425000000000004,40.38407841382366L62.1,40.49883313478463L62.775000000000006,40.62153074419359L63.449999999999996,40.75202409292771L64.125,40.89022028664061L64.8,41.03605437897892L65.475,41.18948279725794L66.15,41.35046558324862L66.825,41.518969552268146L67.5,41.69497018863402L68.175,41.87843896831856L68.85,42.06935417203243L69.525,42.267684348711214L70.2,42.47340602284336L70.875,42.68649129450384L71.55,42.90691421399222L72.22500000000001,43.134640791997214L72.9,43.369646030059386L73.575,43.611896509612166L74.25,43.86135836489734L74.92500000000001,44.118002066714666L75.60000000000001,44.38179608292566L76.27499999999999,44.6527030747564L76.94999999999999,44.93068682432428L77.625,45.21571178628159L78.3,45.50774281880152L78.975,45.80674041729705L79.64999999999999,46.11266245952501L80.325,46.42547446239411L81,46.74513271168587L81.675,47.071597164251045L82.35,47.40482537470916L83.025,47.74476885146825L83.7,48.0913892898277L84.375,48.444640682603534L85.05,48.804472401121615L85.725,49.17084025355936L86.4,49.54369930533227L87.075,49.922994966453246L87.75,50.30868066831188L88.425,50.700710050250976L89.10000000000001,51.09902766663981L89.775,51.50358183060909L90.45,51.91431850567355L91.125,52.33118685045113L91.80000000000001,52.754128730876175L92.47500000000001,53.18309545189118L93.14999999999999,53.618025562352486L93.82499999999999,54.058863772082915L94.5,54.50554927773989L95.175,54.95803178269958L95.85,55.41624427000593L96.52499999999999,55.88013271486706L97.2,56.34963246829875L97.875,56.824681716546834L98.55,57.30522495186783L99.225,57.79119203063391L99.9,58.28252244717736L100.575,58.77915226886121L101.25,59.281020111739664L101.925,59.788056911336085L102.6,60.30019359972809L103.275,60.817365711798686L103.95,61.33950693924119L104.625,61.86654986783533L105.3,62.39842411737608L105.97500000000001,62.93505983050413L106.65,63.47638976600382L107.325,64.02233904260034L108,64.57283970716512L108.67500000000001,65.12781875371188L109.35000000000001,65.6872047494125L110.02499999999999,66.25092260046101L110.69999999999999,66.81889962133744L111.375,67.39106226905703L112.05,67.96733648615624L112.725,68.5476456040478L113.39999999999999,69.13191368990658L114.075,69.72006525236478L114.75,70.31202276249262L115.425,70.90771207369586L116.1,71.5070518590361L116.775,72.10996569311386L117.45,72.71637318414409L118.125,73.32619616538295L118.8,73.93935550267504L119.475,74.55577148141799L120.15,75.17536403874128L120.825,75.79805060037714L121.5,76.42374938765577L122.175,77.05238140170258L122.85000000000001,77.68386240421093L123.525,78.3181119205241L124.2,78.95504482686628L124.875,79.59458011729915L125.55000000000001,80.23663234927793L126.22500000000001,80.88111802316662L126.89999999999999,81.52795480507456L127.57499999999999,82.17705875812179L128.25,82.82834268119855L128.92499999999998,83.48172201952988L129.6,84.13711150370533L130.275,84.79442773796947L130.95,85.45358384588725L131.625,86.11449316505212L132.3,86.77706916147476L132.975,87.44122537821602L133.65,88.10687540456695L134.325,88.77393285755673L135,89.44230906842101L135.67499999999998,90.1119186017921L136.35,90.78267565990384L137.02499999999998,91.4544896226784L137.7,92.12727388395994L138.375,92.80093964107314L139.05,93.47539907586727L139.725,94.15056726334286L140.4,94.82635180464563L141.075,95.50266732879021L141.75,96.17942577420364L142.42499999999998,96.85653746496023L143.1,97.53391405895911L143.775,98.21146801439428L144.45000000000002,98.88910996720031L145.125,99.56675176239247L145.8,100.24430597043443L146.475,100.92168329462254L147.15,101.59879331795283L147.825,102.27554955611373L148.5,102.95186558197288L149.175,103.62765039783261L149.85000000000002,104.30281717096526L150.525,104.97727696275236L151.20000000000002,105.65094417591372L151.875,106.32372831066304L152.54999999999998,106.99554053058307L153.225,107.66629529971428L153.89999999999998,108.33590445749921L154.575,109.00428172227602L155.25,109.67133848606579L155.925,110.33698819875389L156.6,111.00114324250787L157.275,111.66371766130094L157.95,112.32462534497161L158.625,112.98377893965927L159.29999999999998,113.64109379893848L159.975,114.29648344719031L160.65,114.94986146249792L161.32500000000002,115.6011437576021L162,116.25024534360188L162.675,116.8970806906111L163.35,117.54156624658907L164.025,118.18361734376586L164.7,118.8231509473704L165.375,119.46008269999454L166.05,120.09432975308434L166.72500000000002,120.72580901218008L167.4,121.35443838649688L168.07500000000002,121.98013638745465L168.75,122.6028207365781L169.42499999999998,123.22240983267287L170.1,123.83882363213148L170.77499999999998,124.45198072346211L171.45,125.06180232809696L172.125,125.66820779356803L172.8,126.27111879672178L173.475,126.87045610955695L174.15,127.4661422636001L174.825,128.05809854365802L175.5,128.64624778894202L176.17499999999998,129.2305137713062L176.85,129.810819670972L177.525,130.3870906156178L178.20000000000002,130.95925059895967L178.875,131.5272252367727L179.55,132.09093996684916L180.225,132.6503224226281L180.9,133.20529810128198L181.575,133.75579524748701L182.25,134.3017426032034L182.925,134.84306805754363L183.60000000000002,135.37970129034795L184.275,135.91157248028412L184.95000000000002,136.43861210531637L185.625,136.96075082298685L186.29999999999998,137.47792112541183L186.975,137.9900554542337L187.64999999999998,138.49708679641972L188.325,138.99894904174113L189,139.49557662165165L189.675,139.98690486822335L190.35,140.47286965389958L191.025,140.95340717534626L191.7,141.42845555059023L192.375,141.89795174803854L193.04999999999998,142.36183549998077L193.725,142.82004531899068L194.4,143.272521863858L195.07500000000002,143.71920650549288L195.75,144.1600404664687L196.425,144.5949660315749L197.1,145.0239266985397L197.775,145.44686669285457L198.45,145.86373038886433L199.125,146.27446368924865L199.8,146.67901312588344L200.47500000000002,147.07732560816248L201.15,147.46934913540377L201.82500000000002,147.85503264868456L202.5,148.23432565413745L203.17499999999998,148.60717886034203L203.85,148.97354340954152L204.52499999999998,149.33337185539546L205.2,149.68661702280409L205.875,150.03323276282572L206.55,150.37317383001812L207.225,150.70639580884313L207.9,151.03285535731428L208.575,151.35250977757596L209.25,151.66531733386034L209.92499999999998,151.9712374432612L210.6,152.2702299267848L211.275,152.5622558551008L211.95000000000002,152.8472771925792L212.625,153.12525658371243L213.3,153.3961578005777L213.975,153.65994543570554L214.65,153.91658529340958L215.325,154.166043617269L216,154.40828792173807L216.675,154.64328662769844L217.35000000000002,154.87100913159503L218.025,155.09142563106408L218.70000000000002,155.30450738006573L219.375,155.51022655415903L220.04999999999998,155.70855631356915L220.725,155.8994707690767L221.39999999999998,156.0829450335022L222.075,156.25895518064604L222.75,156.42747814870089L223.425,156.5884920060795L224.1,156.74197575115565L224.775,156.887909336011L225.45,157.02627371665878L226.125,157.15705081122672L226.79999999999998,157.28022358279384L227.475,157.3957759631776L228.15,157.50369286117L228.82500000000002,157.60396018546666L229.5,157.69656485842438L230.175,157.7814947793464L230.85,157.85873888339822L231.525,157.92828708701853L232.2,157.99013030463203L232.875,158.04426047216785L233.55,158.09067052294665L234.22500000000002,158.129354401319L234.9,158.16030705904353L235.57500000000002,158.18352445606516L236.25,158.199003562528" style="fill: none;" fill="none"></path></g></g></g></g><g opacity="0.2"><g><g><g><path stroke="rgb(255, 112, 67)" stroke-width="2px" d="M34.425,153.4755553876619L35.1,148.72888855310157L35.775,143.98222171854124L34.425,153.4755553876619L35.1,148.72888855310157L35.775,143.98222171854124L34.425,153.4755553876619L35.1,148.72888855310157L35.775,143.98222171854124L36.45,139.2355548839809L37.125,134.48888948844333L37.800000000000004,129.74222121486028L38.474999999999994,124.99555581932268L39.15,120.24888754573962L39.824999999999996,115.50222215020202L40.5,110.75555675466443L41.175,106.00888848108137L41.85,101.26222020749832L42.525,96.51555769000618L43.2,91.76888941642312L43.875,87.02222114284005L44.550000000000004,82.275552869257L45.225,77.52889035176486L45.900000000000006,72.7822220781818L46.574999999999996,68.03555380459875L47.25,63.28889128710661L47.925,58.542223013523554L48.6,53.7955547399405L49.275,49.04888646635743L49.95,44.302218192774376L50.625,39.55554991919132L51.3,39.57429175120262L51.975,39.630494222872784L52.65,39.72412279765638L53.325,39.85513142682612L54,40.023416500745554L54.675000000000004,40.228885921960085L55.349999999999994,40.4714015442878L56.025,40.75082522154682L56.699999999999996,41.066961246646116L57.375,41.41962542467647L58.05,41.80857599981957L58.725,42.23359424062073L59.4,42.69439234253434L60.075,43.19068250101475L60.75,43.72215388715267L61.425000000000004,44.28846113549341L62.1,44.88927039276393L62.775000000000006,45.52417873260049L63.449999999999996,46.192794740820915L64.125,46.89469246669776L64.8,47.629434447321614L65.475,48.39654868323771L66.15,49.19556317499115L66.825,50.025959874399845L67.5,50.88720922109982L68.175,51.778793166908955L68.85,52.70012459055418L69.525,53.65062788294422L70.2,54.629715922806L70.875,55.636755540139134L71.55,56.671102052761455L72.22500000000001,57.732122290672535L72.9,58.819137035144706L73.575,59.931467067450285L74.25,61.06839863231613L74.92500000000001,62.229217974469066L75.60000000000001,63.41319407036322L76.27499999999999,64.61957287208902L76.94999999999999,65.84760033173694L77.625,67.09649937703377L78.3,68.36547566743361L78.975,69.6537348623905L79.64999999999999,70.96045384090394L80.325,72.28481523806435L81,73.62598442068943L81.675,74.98310948732411L82.35,76.35532702433152L83.025,77.74178513025659L83.7,79.14159736709875L84.375,80.55388305294845L85.05,81.9777442376233L85.725,83.41229448312274L86.4,84.85661281490079L87.075,86.30980128277507L87.75,87.7709331561087L88.425,89.23908170426472L89.10000000000001,90.71333170878805L89.775,92.19274492685994L90.45,93.67638311566165L91.125,95.16331954455626L91.80000000000001,96.65260445854318L92.47500000000001,98.14330537089458L93.14999999999999,99.63447252660991L93.82499999999999,101.12517343896133L94.5,102.61445835294825L95.175,104.10139478184284L95.85,105.58503297064455L96.52499999999999,107.06444618871643L97.2,108.53869619323976L97.875,110.00684761944125L98.55,111.46797661472941L99.225,112.92116220455824L99.9,114.3654862924272L100.575,115.80003078183574L101.25,117.22389772260149L101.925,118.63618053040571L102.6,120.0359927672479L103.275,121.4224479951275L103.95,122.7946712882258L104.625,124.15179347681503L105.3,125.49295978139466L105.97500000000001,126.81732117855509L106.65,128.12404591315945L107.325,129.41230223007088L108,130.6812785204707L108.67500000000001,131.9301746877221L109.35000000000001,133.15820214737L110.02499999999999,134.364585266164L110.69999999999999,135.5485599230354L111.375,136.70937926518835L112.05,137.8463108300542L112.725,138.95863510626887L113.39999999999999,140.04565128976375L114.075,141.10667296669757L114.75,142.14102811345623L115.425,143.14806341372122L116.1,144.12714425846934L116.775,145.07765186792756L117.45,145.99898616961826L118.125,146.8905636398251L118.8,147.75182305968417L119.475,148.5822190395815L120.15,149.38122849475542L120.825,150.1483448892056L121.5,150.88308543080672L122.175,151.58498459570626L122.85000000000001,152.2536006039267L123.525,152.88850966327462L124.2,153.48931172543155L124.875,154.05562688839726L125.55000000000001,154.58709791477952L126.22500000000001,155.0833884330156L126.89999999999999,155.54418527578432L127.57499999999999,155.96919740073886L128.25,156.3581564301405L128.92499999999998,156.71081665085836L129.6,157.02695537412527L130.275,157.30637275565985L130.95,157.548892425239L131.625,157.75436117191163L132.3,157.92264923630015L132.975,158.0536502993582L133.65,158.1472816453848L134.325,158.20348411986555L135,158.22222222222223L34.425,153.4755553876619L35.1,148.72888855310157L35.775,143.98222171854124L36.45,139.2355548839809L37.125,134.48888948844333L37.800000000000004,129.74222121486028L38.474999999999994,124.99555581932268L39.15,120.24888754573962L39.824999999999996,115.50222215020202L40.5,110.75555675466443L41.175,106.00888848108137L41.85,101.26222020749832L42.525,96.51555769000618L43.2,91.76888941642312L43.875,87.02222114284005L44.550000000000004,82.275552869257L45.225,77.52889035176486L45.900000000000006,72.7822220781818L46.574999999999996,68.03555380459875L47.25,63.28889128710661L47.925,58.542223013523554L48.6,53.7955547399405L49.275,49.04888646635743L49.95,44.302218192774376L50.625,39.55554991919132L51.3,39.559429524466395L51.975,39.57104531592793L52.65,39.59039729357593L53.325,39.61749696959225L54,39.65232131961318L54.675000000000004,39.694881855820626L55.349999999999994,39.74516706603271L56.025,39.803176950249394L56.699999999999996,39.868888484107146L57.375,39.94230166760585L58.05,40.023416500745554L58.725,40.11220995916261L59.4,40.20867053067519L60.075,40.312798215283294L60.75,40.42455847644143L61.425000000000004,40.543962826331466L62.1,40.67096521622605L62.775000000000006,40.805577158307045L63.449999999999996,40.947764116028964L64.125,41.09751457720995L64.8,41.2548055174864L65.475,41.41962542467647L66.15,41.59193976223469L66.825,41.771725505797406L67.5,41.958971143182794L68.175,42.15364213784537L68.85,42.355726977603325L69.525,42.56517961372933L70.2,42.781988534041574L70.875,43.00611920199461L71.55,43.23754859322477L72.22500000000001,43.47623065900473L72.9,43.72215388715267L73.575,43.97527222894132L74.25,44.23555114782519L74.92500000000001,44.502967619440625L75.60000000000001,44.777487107242166L76.27499999999999,45.05906356250247L76.94999999999999,45.34766244867612L77.625,45.64324922921759L78.3,45.945789367581426L78.975,46.25523681504032L79.64999999999999,46.571545522866984L80.325,46.89469246669776L81,47.22462008562354L81.675,47.56129384309881L82.35,47.90466769039631L83.025,48.2546840666069L83.7,48.61131994736692L84.375,48.97451777176727L85.05,49.344219978898764L85.725,49.72039203221598L86.4,50.10298788299164L87.075,50.49193845813474L87.75,50.88720922109982L88.425,51.28875412315959L89.10000000000001,51.69650409122309L89.775,52.11041307656302L90.45,52.530423518270254L91.125,52.95648936761751L91.80000000000001,53.38854155151381L92.47500000000001,53.82654553341368L93.14999999999999,54.270420728044385L93.82499999999999,54.72012108667856L94.5,55.17557753622532L95.175,55.636755540139134L95.85,56.10356300096545L96.52499999999999,56.575965382158756L97.2,57.05388209844628L97.875,57.537255588918924L98.55,58.02603980484936L99.225,58.52014264878299L99.9,59.019518071992536L100.575,59.52409700138702L101.25,60.03382187605733L101.925,60.54861211073067L102.6,61.06839863231613L103.275,61.59312387990454L103.95,62.12271878040498L104.625,62.657114260726516L105.3,63.19623549168723L105.97500000000001,63.74001340019619L106.65,64.2883846692534L107.325,64.84126295749512L108,65.39859070401225L108.67500000000001,65.96028732353201L109.35000000000001,66.52628374296343L110.02499999999999,67.09649937703377L110.69999999999999,67.67086515265206L111.375,68.24930624063644L112.05,68.83174781180504L112.725,69.4181092808851L113.39999999999999,70.00831581869474L114.075,70.60229259605208L114.75,71.19995902768439L115.425,71.8012460405007L116.1,72.4060615370464L116.775,73.01433644423055L117.45,73.62598442068943L118.125,74.24093063724125L118.8,74.85909450861314L119.475,75.4803954495324L120.15,76.10475287472623L120.825,76.73208044283092L121.5,77.36229756857371L122.175,77.99532942277277L122.85000000000001,78.63108390797343L123.525,79.26948619499389L124.2,79.91044418637952L124.875,80.55388305294845L125.55000000000001,81.1997106972461L126.22500000000001,81.84784653399969L126.89999999999999,82.49820997793641L127.57499999999999,83.15071468769264L128.25,83.80526856581372L128.92499999999998,84.46179102702689L129.6,85.12019572996846L130.275,85.78040208936567L130.95,86.44231800776389L131.625,87.10585714379948L132.3,87.7709331561087L132.975,88.43745970332789L133.65,89.10535044409336L134.325,89.7745190370414L135,90.44487338471744L135.67499999999998,91.1163329018487L136.35,91.78881124707146L137.02499999999998,92.46221056684024L137.7,93.13645027588225L138.375,93.8114382767429L139.05,94.4870882280585L139.725,95.16331954455626L140.4,95.84002861659975L141.075,96.51714061500712L141.75,97.19456344232378L142.42499999999998,97.87220500109511L143.1,98.54997894995743L143.775,99.22779894754706L144.45000000000002,99.90557289640937L145.125,100.58321445518071L145.8,101.26063728249736L146.475,101.93774928090474L147.15,102.61445835294825L147.825,103.29068391335508L148.5,103.96633962076159L149.175,104.64132762162222L149.85000000000002,105.31556733066424L150.525,105.98896665043301L151.20000000000002,106.66144499565578L151.875,107.33290451278704L152.54999999999998,108.00325886046308L153.225,108.67242745341113L153.89999999999998,109.34031819417659L154.575,110.00684761944125L155.25,110.67192363175047L155.925,111.33546276778604L156.6,111.99737580813883L157.275,112.65757928949057L157.95,113.3159868704776L158.625,113.97250933169077L159.29999999999998,114.62706608785732L159.975,115.27956791956805L160.65,115.92992848545934L161.32500000000002,116.57806720025837L162,117.22389772260149L162.675,117.86733371112496L163.35,118.50829458055605L164.025,119.14669398953103L164.7,119.78245135277717L165.375,120.41548032893076L166.05,121.04570033271901L166.72500000000002,121.67302790082371L167.4,122.29738244797207L168.07500000000002,122.91868338889132L168.75,123.53684726026324L169.42499999999998,124.15179347681503L170.1,124.76344433131939L170.77499999999998,125.37171636045807L171.45,125.97653473504923L172.125,126.57781599177463L172.8,127.17548530145238L173.475,127.76946207880974L174.15,128.35967149466484L174.825,128.9460329637449L175.5,129.52847165686802L176.17499999999998,130.10691274485242L176.85,130.6812785204707L177.525,131.25149703258649L178.20000000000002,131.81749057397246L178.875,132.3791871934922L179.55,132.9365120619639L180.225,133.48939610629654L180.9,134.03776161926282L181.575,134.58154096679453L182.25,135.12066363677798L182.925,135.65505623905403L183.60000000000002,136.18465113955446L184.275,136.70937926518835L184.95000000000002,137.22917154286472L185.625,137.7439588994926L186.29999999999998,138.25367657904928L186.975,138.7582569474665L187.64999999999998,139.25763380969875L188.325,139.7517424097233L189,140.24051799151738L189.675,140.7238972380809L190.35,141.2018168324139L191.025,141.6742134575163L191.7,142.14102811345623L192.375,142.60219604421098L193.04999999999998,143.05766112789408L193.725,143.50736004750556L194.4,143.95123668115897L195.07500000000002,144.38923346794522L195.75,144.82129140793242L196.425,145.24735437923422L197.1,145.6673676989869L197.775,146.08127668432684L198.45,146.48902593287897L199.125,146.8905636398251L199.8,147.28583728083566L200.47500000000002,147.67479433158104L201.15,148.05738442626574L201.82500000000002,148.43355791860571L202.5,148.8032651623168L203.17499999999998,149.16645866964893L203.85,149.52309023334075L204.52499999999998,149.87311452417634L205.2,150.21648477391702L205.875,150.5531563728582L206.55,150.88308543080672L207.225,151.20622877708067L207.9,151.52254468002099L208.575,151.83199140796853L209.25,152.13452866828692L209.92499999999998,152.43011760736246L210.6,152.7187186520702L211.275,153.00029474757483L211.95000000000002,153.2748091987968L212.625,153.54222567041222L213.3,153.80250962587564L213.975,154.05562688839726L214.65,154.30154507996565L215.325,154.54023110305815L216,154.77165437844167L216.675,154.995784686639L217.35000000000002,155.21259288743994L218.025,155.42205038026765L218.70000000000002,155.6241300035682L219.375,155.81880531529896L220.04999999999998,156.00605095268435L220.725,156.18584245233797L221.39999999999998,156.3581564301405L222.075,156.52297040136182L222.75,156.68026260078315L223.425,156.8300127921474L224.1,156.97220136876987L224.775,157.10680971329404L225.45,157.2338202876304L226.125,157.35321645307866L226.79999999999998,157.46498274014448L227.475,157.5691045337533L228.15,157.66556820815862L228.82500000000002,157.75436117191163L229.5,157.83547186786097L230.175,157.9088896607294L230.85,157.97460503947593L231.525,158.03260939244905L232.2,158.08289513105228L232.875,158.12545572347153L233.55,158.1602855991149L234.22500000000002,158.18738021887754L234.9,158.20673604563027L235.57500000000002,158.21835055159764L236.25,158.22222222222223" style="fill: none;" fill="none"></path></g></g></g></g></g></g><g transform="translate(60, 178)" clip-path="url(#clip_1)"><clipPath id="clip_1"><rect width="270" height="22"></rect></clipPath><g><g><line x1="0" y1="0" x2="0" y2="5" style="visibility: inherit;" fill="rgb(0, 0, 0)" stroke="rgb(204, 204, 204)" stroke-width="1px"></line><line x1="33.75" y1="0" x2="33.75" y2="5" style="visibility: inherit;" fill="rgb(0, 0, 0)" stroke="rgb(204, 204, 204)" stroke-width="1px"></line><line x1="67.5" y1="0" x2="67.5" y2="5" style="visibility: inherit;" fill="rgb(0, 0, 0)" stroke="rgb(204, 204, 204)" stroke-width="1px"></line><line x1="101.25" y1="0" x2="101.25" y2="5" style="visibility: inherit;" fill="rgb(0, 0, 0)" stroke="rgb(204, 204, 204)" stroke-width="1px"></line><line x1="135" y1="0" x2="135" y2="5" style="visibility: inherit;" fill="rgb(0, 0, 0)" stroke="rgb(204, 204, 204)" stroke-width="1px"></line><line x1="168.75" y1="0" x2="168.75" y2="5" style="visibility: inherit;" fill="rgb(0, 0, 0)" stroke="rgb(204, 204, 204)" stroke-width="1px"></line><line x1="202.5" y1="0" x2="202.5" y2="5" style="visibility: inherit;" fill="rgb(0, 0, 0)" stroke="rgb(204, 204, 204)" stroke-width="1px"></line><line x1="236.25" y1="0" x2="236.25" y2="5" style="visibility: inherit;" fill="rgb(0, 0, 0)" stroke="rgb(204, 204, 204)" stroke-width="1px"></line><line x1="270" y1="0" x2="270" y2="5" style="visibility: inherit;" fill="rgb(0, 0, 0)" stroke="rgb(204, 204, 204)" stroke-width="1px"></line></g><g transform="translate(0, 8)"><text x="0" y="0" dx="0em" dy="0.95em" style="text-anchor: middle; visibility: hidden; font-family: &quot;Helvetica Neue&quot;, sans-serif; font-size: 12px; font-weight: 200;" fill="rgb(50, 49, 63)" stroke="none" stroke-width="1px">-500</text><text x="33.75" y="0" dx="0em" dy="0.95em" style="text-anchor: middle; visibility: inherit; font-family: &quot;Helvetica Neue&quot;, sans-serif; font-size: 12px; font-weight: 200;" fill="rgb(50, 49, 63)" stroke="none" stroke-width="1px">0</text><text x="67.5" y="0" dx="0em" dy="0.95em" style="text-anchor: middle; visibility: inherit; font-family: &quot;Helvetica Neue&quot;, sans-serif; font-size: 12px; font-weight: 200;" fill="rgb(50, 49, 63)" stroke="none" stroke-width="1px">500</text><text x="101.25" y="0" dx="0em" dy="0.95em" style="text-anchor: middle; visibility: inherit; font-family: &quot;Helvetica Neue&quot;, sans-serif; font-size: 12px; font-weight: 200;" fill="rgb(50, 49, 63)" stroke="none" stroke-width="1px">1k</text><text x="135" y="0" dx="0em" dy="0.95em" style="text-anchor: middle; visibility: inherit; font-family: &quot;Helvetica Neue&quot;, sans-serif; font-size: 12px; font-weight: 200;" fill="rgb(50, 49, 63)" stroke="none" stroke-width="1px">1.5k</text><text x="168.75" y="0" dx="0em" dy="0.95em" style="text-anchor: middle; visibility: inherit; font-family: &quot;Helvetica Neue&quot;, sans-serif; font-size: 12px; font-weight: 200;" fill="rgb(50, 49, 63)" stroke="none" stroke-width="1px">2k</text><text x="202.5" y="0" dx="0em" dy="0.95em" style="text-anchor: middle; visibility: inherit; font-family: &quot;Helvetica Neue&quot;, sans-serif; font-size: 12px; font-weight: 200;" fill="rgb(50, 49, 63)" stroke="none" stroke-width="1px">2.5k</text><text x="236.25" y="0" dx="0em" dy="0.95em" style="text-anchor: middle; visibility: inherit; font-family: &quot;Helvetica Neue&quot;, sans-serif; font-size: 12px; font-weight: 200;" fill="rgb(50, 49, 63)" stroke="none" stroke-width="1px">3k</text><text x="270" y="0" dx="0em" dy="0.95em" style="text-anchor: middle; visibility: hidden; font-family: &quot;Helvetica Neue&quot;, sans-serif; font-size: 12px; font-weight: 200;" fill="rgb(50, 49, 63)" stroke="none" stroke-width="1px">3.5k</text></g><line x1="0" y1="0" x2="270" y2="0" fill="rgb(0, 0, 0)" stroke="rgb(204, 204, 204)" stroke-width="1px"></line></g></g></g></g></svg>